<svg version="1.1" id="Layer_1" xmlns="http://www.w3.org/2000/svg" xmlns:xlink="http://www.w3.org/1999/xlink" x="0px" y="0px"
	 width="100%" viewBox="0 0 320 320" enable-background="new 0 0 320 320" xml:space="preserve">
<path fill="#000000" opacity="1.000000" stroke="none" 
	d="
M53.521317,152.578934 
	C61.582527,135.186081 69.568733,118.173538 77.340790,101.063728 
	C79.352448,96.635178 81.920959,94.424675 87.178818,94.499985 
	C107.332916,94.788643 127.511383,94.084648 147.647385,94.754356 
	C174.940018,95.662071 202.226776,95.466484 229.517563,95.660316 
	C237.784882,95.719032 240.043472,97.980164 239.330612,104.505486 
	C238.912399,108.333702 236.297867,109.950172 233.196747,110.915504 
	C224.648132,113.576553 216.065460,116.136604 207.449097,118.569534 
	C197.889160,121.268906 188.312256,123.924583 178.675446,126.329643 
	C172.094208,127.972115 165.417206,129.256332 158.747772,130.513779 
	C149.984329,132.166031 144.949951,137.780228 141.710526,145.663391 
	C138.995880,152.269577 136.740646,159.248016 132.901047,165.165604 
	C127.085968,174.127792 127.949249,183.210205 129.632080,192.822617 
	C131.767075,205.017807 133.542404,217.278336 135.326630,229.531967 
	C137.349915,243.427536 139.511841,257.313965 141.030884,271.267761 
	C141.944092,279.656342 143.669449,287.976379 143.462814,296.504974 
	C143.378967,299.966064 143.004807,303.029907 139.363586,304.133057 
	C135.243484,305.381256 132.361145,303.381104 130.340302,299.780151 
	C125.451363,291.068512 119.987900,282.715363 114.496964,274.374207 
	C109.101471,266.178009 103.932343,257.833008 98.628525,249.576065 
	C97.567955,247.925003 96.720169,246.059799 94.464760,244.818436 
	C91.794106,248.456573 91.266800,252.988342 89.458313,256.921326 
	C83.760551,269.312439 80.059746,282.457672 75.606033,295.319214 
	C74.796768,297.656250 73.815582,300.043762 72.387878,302.029968 
	C70.412788,304.777679 67.694366,305.904785 64.087402,304.764069 
	C60.803089,303.725433 59.051666,301.590698 59.729546,298.496918 
	C62.134068,287.523071 56.683380,277.753998 55.339466,267.371460 
	C53.960159,256.715485 52.185890,246.111267 50.667862,235.472504 
	C49.078350,224.332779 47.543095,213.184845 46.072567,202.028824 
	C45.293247,196.116608 44.407169,190.221756 44.564716,184.203232 
	C44.645889,181.102341 46.014351,179.587936 48.799736,179.012604 
	C53.334877,178.075867 57.881687,177.195618 63.315632,176.113968 
	C60.654617,175.395386 58.744110,174.610962 56.771214,174.394058 
	C48.996258,173.539246 47.080914,169.237701 49.470112,161.015656 
	C50.294075,158.180130 52.041138,155.612823 53.521317,152.578934 
M200.109497,111.510902 
	C206.551437,109.662781 212.993378,107.814659 219.435318,105.966545 
	C217.912552,104.835426 216.462677,104.350052 215.036774,104.412369 
	C202.093781,104.978043 189.198349,103.662895 176.286652,103.499458 
	C148.853165,103.152206 121.409073,103.621498 93.985764,102.433868 
	C89.450005,102.237442 86.452110,104.090950 84.535194,108.256775 
	C77.445732,123.663498 70.076958,138.943726 63.163864,154.428055 
	C61.537571,158.070724 59.085426,161.589951 58.880600,165.736420 
	C72.411171,171.022614 86.765274,172.077499 100.145020,177.343948 
	C94.823853,180.314880 88.912277,180.425186 83.332878,181.571289 
	C74.635483,183.357880 65.790794,184.423477 57.014729,185.833282 
	C53.915260,186.331177 53.044010,188.394714 53.393818,191.261261 
	C54.112667,197.152069 54.754181,203.052734 55.519100,208.937439 
	C58.500092,231.870956 62.922668,254.623718 63.525455,277.855927 
	C63.661083,283.083099 64.475739,288.480133 67.696487,293.774872 
	C75.535797,271.134430 83.375114,248.494003 91.214424,225.853561 
	C91.817703,225.664520 92.420990,225.475464 93.024269,225.286423 
	C105.506355,249.268066 122.978661,269.960175 136.027634,293.688721 
	C135.003845,282.146454 133.358978,270.911591 131.609909,259.692963 
	C128.091095,237.123138 124.553505,214.556137 120.944725,192.000580 
	C119.492912,182.926514 118.163376,174.008286 122.683022,165.229950 
	C127.935959,155.027405 132.971298,144.697144 137.645386,134.219040 
	C139.876587,129.217270 143.673508,126.973244 148.465881,125.645882 
	C165.406311,120.953857 182.355331,116.292923 200.109497,111.510902 
z"/>
<path fill="#000000" opacity="1.000000" stroke="none" 
	d="
M264.226685,249.669693 
	C258.784302,267.303772 253.410980,284.578827 248.137833,301.884399 
	C247.096405,305.302185 245.075302,306.824829 241.529892,306.428192 
	C234.999710,305.697632 228.515320,307.511108 221.749573,305.622070 
	C218.832932,304.807770 214.179565,307.579376 210.290253,306.725372 
	C203.868378,305.315308 197.419357,305.339447 190.945862,305.431091 
	C188.051590,305.472046 186.986084,304.401459 186.565689,301.422668 
	C184.210678,284.735931 180.979019,268.202759 177.705719,251.669357 
	C175.489319,240.474380 174.426575,229.055634 172.601868,217.776779 
	C171.437912,210.582260 171.365448,203.268982 169.837296,196.105850 
	C169.256454,193.383331 168.325867,191.117172 166.663406,188.954727 
	C165.491577,187.430481 164.010635,185.702057 165.383224,183.561096 
	C166.619202,181.633255 168.395844,180.585709 170.817627,180.616577 
	C177.293533,180.699173 183.678894,181.900574 190.200623,181.725845 
	C201.189148,181.431427 212.216858,181.168823 223.182007,181.754868 
	C241.310318,182.723724 259.436584,182.524704 277.566437,182.712616 
	C279.524811,182.732910 281.531372,183.168457 283.419495,183.732895 
	C286.391998,184.621506 287.727631,188.608185 285.333099,190.354523 
	C279.945801,194.283539 279.419342,200.555130 277.246124,205.901611 
	C271.544922,219.927612 269.482361,235.092560 264.226685,249.669693 
M253.670288,188.392883 
	C245.661423,188.431091 245.291336,188.762161 244.357574,196.530045 
	C244.041672,199.158020 243.673340,201.779663 243.335190,204.405014 
	C242.953659,207.367279 244.184784,208.715607 247.243515,208.665863 
	C253.403046,208.565674 259.565125,208.614319 265.726135,208.619507 
	C267.465729,208.620987 269.272614,208.468307 269.928314,206.616119 
	C271.847687,201.194351 274.218292,195.892670 275.279907,189.615540 
	C268.084442,189.190765 261.345367,188.792938 253.670288,188.392883 
M182.201569,187.423401 
	C175.204849,187.572479 175.204849,187.572479 175.373337,193.759323 
	C175.697357,205.657867 177.759186,207.622589 189.932129,207.632385 
	C190.264267,207.632645 190.596512,207.638153 190.928543,207.632645 
	C206.626328,207.372330 204.477463,210.179611 204.658707,192.841721 
	C204.693893,189.475739 203.262192,187.986389 199.942291,187.928085 
	C194.302094,187.828995 188.664169,187.600616 182.201569,187.423401 
M221.591934,187.483871 
	C217.997681,187.455704 214.365662,187.051315 210.675766,188.364594 
	C210.574997,190.514893 210.395828,192.491211 210.403687,194.466766 
	C210.459290,208.441101 208.539062,207.618454 223.442703,207.630890 
	C236.996658,207.642197 236.997391,207.665314 239.381088,194.789108 
	C239.471375,194.301376 239.531723,193.807236 239.585968,193.313873 
	C239.950912,189.994186 238.845032,188.302856 235.130920,188.680771 
	C230.836670,189.117722 226.508499,189.134995 221.591934,187.483871 
M224.304001,232.607315 
	C231.849411,232.579590 233.846420,231.532837 234.532532,226.808121 
	C235.188339,222.292114 235.572845,217.736694 236.110931,212.889084 
	C228.836029,212.029419 221.903107,212.575150 214.988144,212.703629 
	C212.350571,212.752625 210.900574,214.236282 210.463959,217.018845 
	C208.237671,231.207428 209.355820,232.611450 224.304001,232.607315 
M265.329285,222.888214 
	C266.051147,220.050629 266.773010,217.213043 267.553375,214.145584 
	C263.123383,212.710175 258.967316,213.466354 254.900696,213.430893 
	C242.484924,213.322647 242.485580,213.395416 239.976959,225.290298 
	C239.806030,226.100784 239.525833,226.893509 239.415695,227.710571 
	C238.982285,230.925751 239.944275,232.870712 243.665756,232.667984 
	C246.653778,232.505188 249.657990,232.644501 252.655014,232.641479 
	C262.245483,232.631775 262.245483,232.630295 265.329285,222.888214 
M181.275696,228.295364 
	C183.546692,231.787247 201.486542,233.355682 204.307175,230.308945 
	C205.721115,228.781631 205.080734,215.358795 203.432922,213.983109 
	C202.839005,213.487289 201.934799,213.119110 201.168350,213.112030 
	C194.100143,213.046799 187.031097,213.073563 180.013962,213.073563 
	C178.787354,218.176971 179.467010,222.891556 181.275696,228.295364 
M197.022766,255.629227 
	C199.922607,255.820969 202.483490,254.730408 205.188858,253.650650 
	C205.329330,249.078079 206.212524,244.640900 204.737625,240.218170 
	C204.320129,238.966156 204.380722,237.296204 202.696381,237.206009 
	C197.744568,236.940903 193.022934,234.826706 187.972702,235.443787 
	C186.049011,235.678864 184.058731,236.366959 183.733871,238.299515 
	C182.838486,243.626007 183.337585,249.084473 185.961563,253.730820 
	C188.010788,257.359436 192.366577,255.095749 195.664566,255.628143 
	C195.826340,255.654266 195.996048,255.631348 197.022766,255.629227 
M252.736389,255.586441 
	C254.459595,255.595154 255.669708,254.674286 256.163696,253.156662 
	C257.737152,248.322601 259.166687,243.441681 260.876648,237.842667 
	C253.440430,237.082382 246.694748,237.278610 239.957565,237.713745 
	C238.518143,237.806717 237.695938,239.044220 237.509720,240.505859 
	C236.908340,245.225922 236.334061,249.949417 235.693619,255.121445 
	C241.330688,256.076904 246.627365,255.477127 252.736389,255.586441 
M231.635239,246.369766 
	C231.711319,245.376358 231.687759,244.363220 231.879913,243.392792 
	C232.980774,237.833527 232.078415,236.657455 226.265259,236.571472 
	C223.609695,236.532181 220.950409,236.759186 218.292542,236.858017 
	C210.431244,237.150330 210.403275,237.148849 210.392242,245.200485 
	C210.376846,256.426025 209.130325,255.586304 220.889145,255.645294 
	C231.719803,255.699631 229.943512,254.863647 231.635239,246.369766 
M186.488632,261.488678 
	C187.140152,266.384949 187.794601,271.280792 188.441223,276.177734 
	C188.615234,277.495483 189.335419,278.311646 190.650589,278.488861 
	C193.432190,278.863586 196.242050,279.590820 199.000961,279.442261 
	C203.332626,279.209076 206.544052,277.090881 207.410919,272.427887 
	C208.034637,269.072906 205.262650,260.048187 203.124435,259.879547 
	C197.644760,259.447418 192.017242,258.098724 186.488632,261.488678 
M233.068451,272.114563 
	C231.716202,278.186096 232.002991,278.587738 237.779358,278.622437 
	C240.265381,278.637390 242.751755,278.607605 245.237640,278.631561 
	C247.078232,278.649292 248.665604,277.962158 249.202805,276.221191 
	C250.734909,271.255676 253.127625,266.486115 253.232925,261.105438 
	C250.973068,259.916626 248.745560,260.572021 246.656570,260.216431 
	C235.865494,258.379669 233.689926,260.191315 233.068451,272.114563 
M226.804977,277.299225 
	C227.397003,274.405762 228.125412,271.532349 228.554703,268.614929 
	C229.694870,260.866577 229.641922,260.906677 221.684250,260.641022 
	C220.235687,260.592682 218.813446,259.942963 217.366379,259.629303 
	C211.934357,258.451813 210.428131,259.636261 210.409378,265.079559 
	C210.398499,268.236481 210.394485,271.393524 210.409668,274.550385 
	C210.420822,276.870819 211.453247,278.555725 213.890427,278.523315 
	C217.999374,278.468689 222.177261,279.375702 226.804977,277.299225 
M189.708740,284.518402 
	C188.752487,289.088989 190.614136,293.291473 191.449066,297.623108 
	C191.863297,299.772064 193.494415,300.698669 195.471924,300.533966 
	C199.003036,300.239899 202.746841,301.822235 206.027390,299.485443 
	C206.433502,299.196167 206.675873,298.177612 206.505096,297.657562 
	C205.238373,293.799866 205.926163,289.760559 205.283051,285.857941 
	C205.096222,284.724182 204.801132,283.044098 203.566574,283.126862 
	C199.073059,283.428223 194.441132,281.416321 189.708740,284.518402 
M225.636993,291.368927 
	C225.650879,290.375732 225.409302,289.292908 225.721008,288.404175 
	C227.460098,283.445526 225.102219,282.097534 220.662918,282.399963 
	C219.508392,282.478607 218.334015,282.336914 217.189072,282.470459 
	C214.650024,282.766663 211.160797,282.195190 210.751831,285.666565 
	C210.201828,290.335114 209.417847,295.169739 211.292480,299.782990 
	C211.464401,300.206055 212.406799,300.398743 213.027557,300.544128 
	C220.659729,302.331818 223.675385,300.551636 225.495316,293.212280 
	C225.574188,292.894226 225.570862,292.555786 225.636993,291.368927 
M245.328644,291.009521 
	C245.901230,288.455170 246.473831,285.900818 247.065811,283.260040 
	C244.172836,283.384644 241.593582,283.396912 238.940933,282.747467 
	C233.706833,281.466003 231.106812,283.446075 230.327057,288.708374 
	C230.109085,290.179382 229.692612,291.620514 229.463150,293.090332 
	C228.308212,300.488922 228.461441,300.654633 235.979736,300.621094 
	C242.971130,300.589905 243.072083,300.491058 245.328644,291.009521 
z"/>
<path fill="#000000" opacity="1.000000" stroke="none" 
	d="
M114.435707,18.793575 
	C132.901077,18.301706 147.455658,27.155022 151.696228,42.495800 
	C158.215439,66.079849 148.740509,81.626717 125.215218,87.209015 
	C110.636726,90.668343 98.522560,84.725243 90.040024,72.972725 
	C81.259697,60.807640 81.237740,47.163750 88.839752,34.528831 
	C94.269402,25.504486 103.853516,21.291632 114.435707,18.793575 
M133.395920,74.184402 
	C147.601089,65.300407 148.512527,48.494331 135.472794,35.888630 
	C128.399734,29.051001 117.610977,26.829199 109.303047,30.499327 
	C98.754471,35.159290 93.219490,43.380516 93.342491,54.057968 
	C93.464592,64.657982 104.724197,79.356041 119.599686,79.226463 
	C123.258606,79.194588 129.625153,80.432343 129.802109,72.968178 
	C130.946274,73.420975 131.852158,73.779465 133.395920,74.184402 
z"/>
<path fill="#000000" opacity="1.000000" stroke="none" 
	d="
M223.291397,133.540222 
	C232.053238,134.969177 240.382050,136.345398 248.707062,137.744263 
	C250.182800,137.992249 251.318146,138.731155 250.865067,140.424667 
	C249.480453,145.599823 252.520950,148.927567 255.657074,152.221664 
	C257.837769,154.512207 260.222992,156.624329 262.254944,159.036774 
	C266.286804,163.823624 264.714661,169.093338 258.572113,169.710083 
	C248.190598,170.752441 237.743835,171.714996 227.284500,171.270676 
	C221.697906,171.033356 216.138565,170.120270 210.519272,172.251328 
	C209.459641,169.043686 210.816269,166.429398 211.724991,163.928879 
	C213.032867,160.330048 211.977814,157.881104 209.086090,155.752426 
	C205.878845,153.391464 202.728088,150.949005 199.626877,148.450027 
	C195.616241,145.218246 195.647995,143.400345 199.869125,140.683670 
	C201.416504,139.687790 202.334808,138.436386 202.568222,136.730240 
	C203.144196,132.520203 205.700500,131.406891 209.610901,131.569290 
	C214.113388,131.756287 218.498093,132.466827 223.291397,133.540222 
M249.090912,154.227325 
	C247.952423,151.829849 246.236832,149.527603 245.821487,147.010788 
	C245.302185,143.863983 243.787369,143.253067 241.097061,143.394211 
	C232.818115,143.828506 224.519562,143.997696 216.263412,144.686691 
	C214.003632,144.875244 211.370499,145.359238 209.006165,147.653290 
	C214.727966,152.303314 217.921829,158.003204 217.515320,165.413696 
	C217.413025,167.278564 219.316528,167.758759 220.875458,167.438187 
	C228.969589,165.773788 237.150101,167.109634 245.266113,166.592697 
	C249.466171,166.325165 253.732773,166.051437 258.457458,164.279984 
	C255.171402,160.779449 252.360291,157.784866 249.090912,154.227325 
z"/>
</svg>